<?xml version="1.0" standalone="no"?>
<!DOCTYPE svg PUBLIC "-//W3C//DTD SVG 20010904//EN" "http://www.w3.org/TR/2001/REC-SVG-20010904/DTD/svg10.dtd">
<svg version="1.0" xmlns="http://www.w3.org/2000/svg"
  width="14.000000pt" height="14.000000pt" viewBox="0 0 512.000000 512.000000"
  preserveAspectRatio="xMidYMid meet">

  <g transform="translate(0.000000,512.000000) scale(0.100000,-0.100000)"
    fill="green" stroke="none">
    <path
      d="M1755 4125 c-438 -71 -785 -410 -860 -842 -19 -107 -19 -266 -1 -361
l14 -72 -27 -6 c-413 -91 -693 -411 -718 -824 -26 -437 302 -844 734 -910 46
-7 593 -10 1668 -8 l1600 3 77 22 c322 92 574 332 671 638 139 441 -52 917
-456 1135 -152 82 -347 128 -497 116 l-75 -6 -23 61 c-98 254 -337 447 -613
495 -105 18 -227 14 -319 -11 -30 -8 -58 -15 -62 -15 -3 0 -21 26 -38 58 -217
386 -646 597 -1075 527z m366 -176 c271 -68 480 -241 604 -501 44 -93 68 -108
136 -83 109 40 156 49 254 48 118 0 202 -20 298 -70 156 -82 272 -225 321
-397 10 -32 28 -69 42 -83 23 -23 29 -24 87 -16 93 12 243 7 322 -11 39 -9
116 -39 171 -66 283 -137 460 -441 441 -755 -8 -122 -27 -196 -77 -300 -99
-205 -266 -350 -495 -427 l-70 -23 -1605 -3 c-1575 -2 -1606 -2 -1685 18 -134
33 -237 91 -335 190 -161 160 -232 359 -209 583 19 193 112 362 267 486 111
89 238 139 400 156 51 6 66 12 83 33 24 30 23 45 -10 192 -85 386 110 781 477
965 168 84 400 109 583 64z" />
  </g>
</svg>