<?xml version="1.0" standalone="no"?>
<!DOCTYPE svg PUBLIC "-//W3C//DTD SVG 20010904//EN" "http://www.w3.org/TR/2001/REC-SVG-20010904/DTD/svg10.dtd">
<svg version="1.0" xmlns="http://www.w3.org/2000/svg"
  width="11.000000pt" height="11.000000pt" viewBox="0 0 512.000000 512.000000"
  preserveAspectRatio="xMidYMid meet">

  <g transform="translate(0.000000,512.000000) scale(0.100000,-0.100000)"
    fill="#6c7280" stroke="none">
    <path
      d="M1070 4241 c-70 -22 -141 -83 -176 -151 -9 -20 -19 -67 -22 -108 -4
-66 -2 -78 27 -137 33 -67 79 -112 148 -143 35 -16 118 -17 1133 -20 l1094 -2
-1180 -1183 c-1297 -1298 -1227 -1221 -1227 -1347 0 -214 211 -344 411 -254
24 11 445 425 1219 1198 l1183 1180 2 -1094 c3 -1015 4 -1098 20 -1133 31 -69
76 -115 143 -148 59 -29 71 -31 139 -27 107 7 189 61 243 161 17 30 18 116 18
1527 0 1438 -1 1496 -19 1530 -26 49 -84 108 -131 133 l-40 22 -1480 2 c-814
1 -1491 -2 -1505 -6z" />
  </g>
</svg>