<?xml version="1.0" standalone="no"?>
<!DOCTYPE svg PUBLIC "-//W3C//DTD SVG 20010904//EN" "http://www.w3.org/TR/2001/REC-SVG-20010904/DTD/svg10.dtd">
<svg version="1.0" xmlns="http://www.w3.org/2000/svg"
  width="15.000000pt" height="15.000000pt" viewBox="0 0 512.000000 512.000000"
  preserveAspectRatio="xMidYMid meet">

  <g transform="translate(0.000000,512.000000) scale(0.100000,-0.100000)"
    fill="#6c7280" stroke="none">
    <path
      d="M2385 4288 c-212 -21 -422 -85 -625 -189 -163 -84 -287 -176 -425
-314 -299 -299 -467 -662 -506 -1092 -35 -387 83 -809 319 -1143 86 -121 280
-316 402 -403 114 -81 341 -196 465 -236 456 -147 920 -109 1345 110 163 84
286 176 425 314 300 300 467 662 506 1092 35 387 -83 809 -319 1143 -37 52
-121 149 -187 215 -138 138 -262 230 -425 314 -210 108 -413 168 -644 190
-125 12 -202 12 -331 -1z m321 -249 c344 -34 657 -183 903 -429 122 -122 206
-241 287 -405 106 -217 147 -397 147 -645 0 -248 -41 -428 -147 -645 -78 -158
-163 -280 -276 -395 -343 -349 -827 -506 -1310 -425 -207 35 -440 132 -613
256 -425 303 -666 824 -618 1335 34 360 180 671 431 923 243 244 560 395 904
431 108 11 172 11 292 -1z" />
    <path
      d="M2499 3785 c-14 -8 -35 -27 -45 -42 -18 -26 -19 -58 -22 -578 -2
-302 0 -575 3 -605 l7 -55 196 -198 c109 -109 209 -205 224 -213 97 -51 216
62 167 159 -6 12 -85 96 -175 187 l-163 165 -3 555 c-3 526 -4 556 -22 583
-36 54 -111 72 -167 42z" />
  </g>
</svg>